<svg width="534" height="617" viewBox="0 0 534 617" fill="none" xmlns="http://www.w3.org/2000/svg">
<path d="M370.747 602.284C343.885 613.147 314.891 617.713 285.99 615.632C257.159 618.014 228.177 613.436 201.484 602.284C197.804 599.309 194.843 595.541 192.824 591.261C190.804 586.981 189.778 582.301 189.821 577.568C189.821 568.305 189.484 543.968 189.316 511.59C81.3579 535.042 58.579 459.547 58.579 459.547C51.4408 436.089 36.1478 415.957 15.4632 402.79C-19.7368 378.705 18.1158 379.211 18.1158 379.211C30.4169 380.912 42.1671 385.399 52.4703 392.332C62.7736 399.264 71.3578 408.457 77.5684 419.211C82.8267 428.782 89.9304 437.215 98.4687 444.023C107.007 450.831 116.81 455.879 127.312 458.875C137.813 461.87 148.804 462.753 159.65 461.474C170.495 460.195 180.979 456.778 190.495 451.421C192.272 431.729 201.022 413.319 215.168 399.505C129.021 389.737 38.4105 356.432 38.4105 207.758C37.8445 169.198 52.1372 131.898 78.3263 103.59C66.4994 70.1303 67.8696 33.4213 82.1579 0.936893C82.1579 0.936893 114.705 -9.5052 188.853 40.7264C252.451 23.2898 319.57 23.2898 383.168 40.7264C457.274 -9.5052 489.779 0.936893 489.779 0.936893C504.094 33.413 505.479 70.1269 493.653 103.59C519.841 131.895 534.121 169.2 533.526 207.758C533.526 356.811 442.789 389.653 356.347 399.253C365.607 408.653 372.747 419.928 377.286 432.318C381.825 444.708 383.659 457.926 382.663 471.084C382.663 522.958 382.2 564.853 382.2 577.568C382.442 582.309 381.525 587.036 379.53 591.343C377.534 595.649 374.52 599.404 370.747 602.284Z" fill="white"/>
</svg>
