<svg width="734" height="734" viewBox="0 0 734 734" fill="none" xmlns="http://www.w3.org/2000/svg">
<path d="M183.667 233.667C211.281 233.667 233.667 211.281 233.667 183.667C233.667 156.052 211.281 133.667 183.667 133.667C156.052 133.667 133.667 156.052 133.667 183.667C133.667 211.281 156.052 233.667 183.667 233.667Z" fill="white"/>
<path d="M133.667 300.333C133.667 281.924 148.591 267 167 267H200.333C218.743 267 233.667 281.924 233.667 300.333V567C233.667 585.41 218.743 600.333 200.333 600.333H167C148.591 600.333 133.667 585.41 133.667 567V300.333Z" fill="white"/>
<path d="M333.667 600.333H367C385.41 600.333 400.333 585.41 400.333 567V417C400.333 367 500.333 333.667 500.333 400.333V567.013C500.333 585.423 515.257 600.333 533.667 600.333H567C585.41 600.333 600.333 585.41 600.333 567V367C600.333 300.333 550.333 267 483.667 267C417 267 400.333 317 400.333 317V300.333C400.333 281.924 385.41 267 367 267H333.667C315.257 267 300.333 281.924 300.333 300.333V567C300.333 585.41 315.257 600.333 333.667 600.333Z" fill="white"/>
<path fill-rule="evenodd" clip-rule="evenodd" d="M633.667 0.333374C688.897 0.333374 733.667 45.105 733.667 100.333V633.667C733.667 688.897 688.897 733.667 633.667 733.667H100.333C45.105 733.667 0.333374 688.897 0.333374 633.667V100.333C0.333374 45.105 45.105 0.333374 100.333 0.333374H633.667ZM633.667 67C652.077 67 667 81.924 667 100.333V633.667C667 652.077 652.077 667 633.667 667H100.333C81.924 667 67 652.077 67 633.667V100.333C67 81.924 81.924 67 100.333 67H633.667Z" fill="white"/>
</svg>
